<svg width="117" height="44" viewBox="0 0 117 44" fill="none" xmlns="http://www.w3.org/2000/svg">
<path d="M4.41591 43.8572H3.24293V39.1072H1.17298V43.8572H0V38.0715H4.41591V43.8572Z" fill="#333333"/>
<path d="M11.2123 39.8928C11.2123 40.5 11.0054 40.9644 10.6259 41.2858C10.2464 41.6073 9.72892 41.75 9.00443 41.75H8.48695V43.7501H7.31396V38H9.07342C9.7289 38 10.2464 38.1428 10.6259 38.4642C11.0399 38.8214 11.2123 39.3571 11.2123 39.8928ZM8.55593 40.8214H8.93541C9.3149 40.8214 9.5909 40.75 9.7634 40.6071C9.97039 40.4642 10.0394 40.2857 10.0394 39.9286C10.0394 39.6428 9.97038 39.4644 9.83238 39.3215C9.69438 39.1787 9.4529 39.1072 9.10791 39.1072H8.59042V40.7857H8.55593V40.8214Z" fill="#333333"/>
<path d="M18.871 40.9642C18.871 41.8928 18.595 42.6429 18.1465 43.1786C17.698 43.7143 17.0425 43.9287 16.2145 43.9287C15.3865 43.9287 14.7311 43.6429 14.2826 43.1786C13.8341 42.7143 13.5581 41.8928 13.5581 40.9642C13.5581 40.0357 13.8341 39.2858 14.2826 38.75C14.7311 38.2143 15.3865 38 16.2145 38C17.0425 38 17.698 38.2858 18.1465 38.75C18.595 39.2143 18.871 40.0357 18.871 40.9642ZM14.8001 40.9642C14.8001 41.6428 14.9381 42.1072 15.1106 42.4286C15.3176 42.75 15.6971 42.893 16.1455 42.893C17.0425 42.893 17.56 42.2143 17.56 40.9642C17.56 39.6785 17.1115 39.0357 16.1455 39.0357C15.6971 39.0357 15.3176 39.1787 15.1106 39.5001C14.9036 39.8215 14.8001 40.3571 14.8001 40.9642Z" fill="#333333"/>
<path d="M24.7706 43.8572H21.5967V38.0715H24.7706V39.0715H22.7696V40.3572H24.6326V41.3572H22.7696V42.8215H24.7706V43.8572Z" fill="#333333"/>
<path d="M32.0152 43.8572H30.6698L28.6688 40.9643V43.8572H27.4958V38.0715H28.6688V40.8214L30.6698 38.0715H31.9117L29.9108 40.8214L32.0152 43.8572Z" fill="#333333"/>
<path d="M36.4311 43.8572H35.2581V39.1072H33.7747V38.1071H37.9836V39.1072H36.5001V43.8572H36.4311Z" fill="#333333"/>
<path d="M48.3679 43.8572H47.0224L45.6079 41.4287L45.0905 41.8216V43.8929H43.9175V38.1071H45.0905V40.7144L45.5389 40.0358L47.0224 38.1071H48.3334L46.4014 40.6429L48.3679 43.8572Z" fill="#333333"/>
<path d="M54.4397 39.8928C54.4397 40.5 54.2327 40.9644 53.8532 41.2858C53.4737 41.6073 52.9562 41.75 52.2317 41.75H51.7142V43.7501H50.5413V38H52.3008C52.9562 38 53.4737 38.1428 53.8532 38.4642C54.2672 38.8214 54.4397 39.3571 54.4397 39.8928ZM51.7833 40.8214H52.1627C52.5422 40.8214 52.8182 40.75 52.9907 40.6071C53.1977 40.4642 53.2667 40.2857 53.2667 39.9286C53.2667 39.6428 53.1977 39.4644 53.0597 39.3215C52.9217 39.1787 52.6802 39.1072 52.3352 39.1072H51.8178V40.7857H51.7833V40.8214Z" fill="#333333"/>
<path d="M56.7856 43.3215C56.7856 43.1072 56.8546 42.9287 56.9926 42.8572C57.1306 42.7858 57.2686 42.6429 57.5101 42.6429C57.7171 42.6429 57.8896 42.7144 58.0276 42.8572C58.1656 43.0001 58.2346 43.1429 58.2346 43.3215C58.2346 43.5357 58.1656 43.7144 58.0276 43.7859C57.8896 43.8573 57.7516 44 57.5101 44C57.3031 44 57.1306 43.9287 56.9926 43.7859C56.8546 43.643 56.7856 43.5357 56.7856 43.3215Z" fill="#333333"/>
<path d="M62.0297 41.643V43.8572H60.8567V38.0715H62.4782C63.2717 38.0715 63.7891 38.2142 64.1686 38.4642C64.5481 38.7499 64.6861 39.2143 64.6861 39.75C64.6861 40.0714 64.6171 40.4285 64.4101 40.6071C64.2031 40.8214 63.9616 41.0715 63.6166 41.2143C64.4446 42.5001 64.9621 43.3572 65.2381 43.7144H63.9271L62.6161 41.5H61.9607V41.643H62.0297ZM62.0297 40.7144H62.4092C62.7886 40.7144 63.0646 40.6429 63.2371 40.5C63.4441 40.3572 63.5132 40.1785 63.5132 39.8928C63.5132 39.6071 63.4441 39.4286 63.2371 39.2858C63.0301 39.1429 62.7886 39.0715 62.4092 39.0715H62.0297V40.7144Z" fill="#333333"/>
<path d="M71.9998 38.1428V41.8215C71.9998 42.2144 71.9308 42.6429 71.7238 42.9643C71.5168 43.2857 71.2753 43.5001 70.9303 43.7143C70.6198 43.9286 70.1368 44 69.6883 44C68.9638 44 68.3774 43.7857 67.9979 43.4643C67.6184 43.1428 67.4114 42.6072 67.4114 41.9286V38.2501H68.5844V41.75C68.5844 42.2143 68.6534 42.5 68.8604 42.75C69.0674 43.0357 69.3088 43.0715 69.6883 43.0715C70.0678 43.0715 70.3438 42.9286 70.5163 42.75C70.7233 42.5357 70.7923 42.2143 70.7923 41.75V38.2501H71.9653V38.1428H71.9998Z" fill="#333333"/>
<path d="M10.535 2.00584V5.3281L9.51252 6.20577L10.9069 7.39669V11.2205L8.98578 13.1636H0.433838V0H8.61394L10.535 2.00584ZM3.06758 5.42222H7.87029V2.2253H3.06758V5.42222ZM3.06758 11.001H8.21115V7.36532H3.06758V11.001Z" fill="#0D8DD0"/>
<path d="M24.664 4.88935V11.1577L22.65 13.1949H14.3149V0.0313721H16.9487V2.85213H22.65L24.664 4.88935ZM22.0303 5.04606H16.9797V11.0324H22.0303V5.04606ZM26.2442 13.1949V0.0313721H28.878V13.1949H26.2442Z" fill="#0D8DD0"/>
<path d="M32.6584 13.1949V0.0313721H42.1709V2.2253H35.2922V5.1714H41.1174L43.0385 7.11465V11.2517L41.1174 13.1949H32.6584ZM35.2922 11.001H40.3428V7.23998H35.2922V11.001Z" fill="#0D8DD0"/>
<path d="M46.4468 11.1577V2.06859L48.4608 0.0313721H55.2156L57.2296 2.06859V11.1577L55.2156 13.1949H48.4608L46.4468 11.1577ZM49.1735 2.38201V10.8757H54.5339V2.38201H49.1735Z" fill="#0D8DD0"/>
<path d="M71.049 2.06859V8.33695L69.0349 10.3742H63.6435V13.1949H61.0098V0.0313721H69.0349L71.049 2.06859ZM63.6435 8.18024H68.4152V2.2253H63.6435V8.18024Z" fill="#0D8DD0"/>
<path d="M7.65333 32H0V29.6808H7.09558V26.5152H2.04502V24.3213H7.09558V21.1557H0.185904V18.8365H7.65333L9.76034 20.9676V29.8375L7.65333 32Z" fill="#0D8DD0"/>
<path d="M13.5098 32V18.8365H16.1435V24.1646H18.4054L21.2561 18.8365H24.1997L20.7293 25.0421L24.4785 32H21.5349L18.6223 26.4838H16.1745V32H13.5098Z" fill="#0D8DD0"/>
<path d="M27.3599 29.9628V20.8737L29.3739 18.8365H36.0357V21.2499H30.0866V29.5554H36.2216V31.9687H29.3429L27.3599 29.9628Z" fill="#0D8DD0"/>
<path d="M39.5371 32V18.8365H49.7002V32H47.0665V21.1557H42.2018V32H39.5371Z" fill="#0D8DD0"/>
<path d="M53.4807 32V18.8365H62.5594V21.0931H56.1145V24.1646H61.6298V26.3585H56.1145V29.7434H62.7453V32H53.4807Z" fill="#0D8DD0"/>
<path d="M76.1615 20.8737V27.142L74.1475 29.1793H68.7561V32H66.1223V18.8365H74.1475L76.1615 20.8737ZM68.7561 26.9853H73.5278V21.0304H68.7561V26.9853Z" fill="#0D8DD0"/>
<path d="M82.5755 32V21.1557H78.9812V18.8365H88.8035V21.1557H85.2093V32H82.5755Z" fill="#0D8DD0"/>
<path d="M91.9641 29.9628V20.8737L93.9781 18.8365H100.733L102.747 20.8737V29.9628L100.733 32H93.9781L91.9641 29.9628ZM94.6908 21.1871V29.6808H100.051V21.1871H94.6908Z" fill="#0D8DD0"/>
<path d="M116.628 20.8109V24.1332L115.606 25.0109L117 26.2018V30.0256L115.079 31.9687H106.496V18.8051H114.676L116.628 20.8109ZM109.13 24.2273H113.933V21.0304H109.13V24.2273ZM109.13 29.8061H114.273V26.1704H109.13V29.8061Z" fill="#0D8DD0"/>
</svg>
